<mxfile host="app.diagrams.net" agent="Mozilla/5.0 (Macintosh; Intel Mac OS X 10_15_7) AppleWebKit/537.36 (KHTML, like Gecko) Chrome/134.0.0.0 Safari/537.36" version="26.1.1">
  <diagram name="Page-1" id="bCBv3wxWjB9PbE3OPAUc">
    <mxGraphModel dx="1034" dy="539" grid="1" gridSize="10" guides="1" tooltips="1" connect="1" arrows="1" fold="1" page="1" pageScale="1" pageWidth="827" pageHeight="1169" math="0" shadow="0">
      <root>
        <mxCell id="0" />
        <mxCell id="1" parent="0" />
        <mxCell id="eZWT99hKmcd31pd7nzPO-1" value="" style="rounded=1;whiteSpace=wrap;html=1;fillColor=#f5f5f5;strokeColor=#666666;gradientColor=#b3b3b3;" vertex="1" parent="1">
          <mxGeometry x="96.25" y="70" width="310" height="470" as="geometry" />
        </mxCell>
        <mxCell id="eZWT99hKmcd31pd7nzPO-2" value="" style="rounded=1;whiteSpace=wrap;html=1;fillColor=#dae8fc;strokeColor=#6c8ebf;" vertex="1" parent="1">
          <mxGeometry x="142.5" y="80" width="217.5" height="150" as="geometry" />
        </mxCell>
        <mxCell id="eZWT99hKmcd31pd7nzPO-3" value="" style="rounded=1;whiteSpace=wrap;html=1;fillColor=#dae8fc;strokeColor=#6c8ebf;" vertex="1" parent="1">
          <mxGeometry x="135" y="317.5" width="225" height="210" as="geometry" />
        </mxCell>
        <mxCell id="eZWT99hKmcd31pd7nzPO-4" value="&lt;font style=&quot;font-size: 14px;&quot;&gt;vm22&lt;/font&gt;" style="text;strokeColor=none;align=center;fillColor=none;html=1;verticalAlign=middle;whiteSpace=wrap;rounded=0;" vertex="1" parent="1">
          <mxGeometry x="221.25" y="80" width="60" height="30" as="geometry" />
        </mxCell>
        <mxCell id="eZWT99hKmcd31pd7nzPO-5" value="&lt;font style=&quot;font-size: 14px;&quot;&gt;vm11&lt;/font&gt;" style="text;strokeColor=none;align=center;fillColor=none;html=1;verticalAlign=middle;whiteSpace=wrap;rounded=0;" vertex="1" parent="1">
          <mxGeometry x="215" y="480" width="60" height="30" as="geometry" />
        </mxCell>
        <mxCell id="eZWT99hKmcd31pd7nzPO-6" value="" style="ellipse;whiteSpace=wrap;html=1;strokeColor=default;align=center;verticalAlign=middle;fontFamily=Helvetica;fontSize=12;fontColor=default;fillColor=default;" vertex="1" parent="1">
          <mxGeometry x="210" y="115" width="90" height="60" as="geometry" />
        </mxCell>
        <mxCell id="eZWT99hKmcd31pd7nzPO-7" value="Node exporter" style="text;strokeColor=none;align=center;fillColor=none;html=1;verticalAlign=middle;whiteSpace=wrap;rounded=0;" vertex="1" parent="1">
          <mxGeometry x="240" y="130" width="30" height="30" as="geometry" />
        </mxCell>
        <mxCell id="eZWT99hKmcd31pd7nzPO-12" value="" style="shape=parallelogram;perimeter=parallelogramPerimeter;whiteSpace=wrap;html=1;fixedSize=1;size=12.5;" vertex="1" parent="1">
          <mxGeometry x="225" y="220" width="53.75" height="30" as="geometry" />
        </mxCell>
        <mxCell id="eZWT99hKmcd31pd7nzPO-19" value="" style="ellipse;whiteSpace=wrap;html=1;strokeColor=default;align=center;verticalAlign=middle;fontFamily=Helvetica;fontSize=12;fontColor=default;fillColor=default;" vertex="1" parent="1">
          <mxGeometry x="142.5" y="420" width="90" height="60" as="geometry" />
        </mxCell>
        <mxCell id="eZWT99hKmcd31pd7nzPO-20" value="" style="ellipse;whiteSpace=wrap;html=1;strokeColor=default;align=center;verticalAlign=middle;fontFamily=Helvetica;fontSize=12;fontColor=default;fillColor=default;" vertex="1" parent="1">
          <mxGeometry x="260" y="415" width="90" height="60" as="geometry" />
        </mxCell>
        <mxCell id="eZWT99hKmcd31pd7nzPO-29" value=":9100" style="text;strokeColor=none;align=center;fillColor=none;html=1;verticalAlign=middle;whiteSpace=wrap;rounded=0;" vertex="1" parent="1">
          <mxGeometry x="239.38" y="227.5" width="25" height="15" as="geometry" />
        </mxCell>
        <mxCell id="eZWT99hKmcd31pd7nzPO-33" value="" style="shape=parallelogram;perimeter=parallelogramPerimeter;whiteSpace=wrap;html=1;fixedSize=1;size=12.5;" vertex="1" parent="1">
          <mxGeometry x="160" y="310" width="50" height="30" as="geometry" />
        </mxCell>
        <mxCell id="eZWT99hKmcd31pd7nzPO-34" value="" style="shape=parallelogram;perimeter=parallelogramPerimeter;whiteSpace=wrap;html=1;fixedSize=1;size=12.5;" vertex="1" parent="1">
          <mxGeometry x="272.5" y="310" width="50" height="30" as="geometry" />
        </mxCell>
        <mxCell id="eZWT99hKmcd31pd7nzPO-35" value=":9090" style="text;strokeColor=none;align=center;fillColor=none;html=1;verticalAlign=middle;whiteSpace=wrap;rounded=0;" vertex="1" parent="1">
          <mxGeometry x="172.5" y="317.5" width="25" height="15" as="geometry" />
        </mxCell>
        <mxCell id="eZWT99hKmcd31pd7nzPO-36" value=":9093" style="text;strokeColor=none;align=center;fillColor=none;html=1;verticalAlign=middle;whiteSpace=wrap;rounded=0;" vertex="1" parent="1">
          <mxGeometry x="285" y="317.5" width="25" height="15" as="geometry" />
        </mxCell>
        <mxCell id="eZWT99hKmcd31pd7nzPO-39" value="Alert Manager" style="text;strokeColor=none;align=center;fillColor=none;html=1;verticalAlign=middle;whiteSpace=wrap;rounded=0;" vertex="1" parent="1">
          <mxGeometry x="290" y="430" width="30" height="30" as="geometry" />
        </mxCell>
        <mxCell id="eZWT99hKmcd31pd7nzPO-40" value="Prometheus" style="text;strokeColor=none;align=center;fillColor=none;html=1;verticalAlign=middle;whiteSpace=wrap;rounded=0;" vertex="1" parent="1">
          <mxGeometry x="172.5" y="435" width="30" height="30" as="geometry" />
        </mxCell>
        <mxCell id="eZWT99hKmcd31pd7nzPO-50" value="" style="endArrow=classic;html=1;rounded=0;entryX=0.5;entryY=1;entryDx=0;entryDy=0;exitX=0.5;exitY=0;exitDx=0;exitDy=0;" edge="1" parent="1" source="eZWT99hKmcd31pd7nzPO-19" target="eZWT99hKmcd31pd7nzPO-33">
          <mxGeometry width="50" height="50" relative="1" as="geometry">
            <mxPoint x="182.5" y="405" as="sourcePoint" />
            <mxPoint x="232.5" y="355" as="targetPoint" />
          </mxGeometry>
        </mxCell>
        <mxCell id="eZWT99hKmcd31pd7nzPO-51" value="" style="endArrow=classic;html=1;rounded=0;entryX=0.5;entryY=1;entryDx=0;entryDy=0;exitX=0.433;exitY=-0.008;exitDx=0;exitDy=0;exitPerimeter=0;" edge="1" parent="1" source="eZWT99hKmcd31pd7nzPO-20">
          <mxGeometry width="50" height="50" relative="1" as="geometry">
            <mxPoint x="296.25" y="405" as="sourcePoint" />
            <mxPoint x="298.75" y="340" as="targetPoint" />
          </mxGeometry>
        </mxCell>
        <mxCell id="eZWT99hKmcd31pd7nzPO-52" value="" style="endArrow=classic;html=1;rounded=0;entryX=0.391;entryY=1.117;entryDx=0;entryDy=0;entryPerimeter=0;" edge="1" parent="1" target="eZWT99hKmcd31pd7nzPO-12">
          <mxGeometry width="50" height="50" relative="1" as="geometry">
            <mxPoint x="186.25" y="310" as="sourcePoint" />
            <mxPoint x="188.75" y="245" as="targetPoint" />
          </mxGeometry>
        </mxCell>
        <mxCell id="eZWT99hKmcd31pd7nzPO-53" value="" style="endArrow=classic;html=1;rounded=0;entryX=0.633;entryY=-0.083;entryDx=0;entryDy=0;exitX=0.5;exitY=1;exitDx=0;exitDy=0;entryPerimeter=0;" edge="1" parent="1" source="eZWT99hKmcd31pd7nzPO-6" target="eZWT99hKmcd31pd7nzPO-12">
          <mxGeometry width="50" height="50" relative="1" as="geometry">
            <mxPoint x="236.25" y="175" as="sourcePoint" />
            <mxPoint x="290" y="115" as="targetPoint" />
          </mxGeometry>
        </mxCell>
        <mxCell id="eZWT99hKmcd31pd7nzPO-55" value="" style="endArrow=classic;html=1;rounded=0;entryX=0;entryY=0.75;entryDx=0;entryDy=0;exitX=1;exitY=1;exitDx=0;exitDy=0;" edge="1" parent="1" source="eZWT99hKmcd31pd7nzPO-35" target="eZWT99hKmcd31pd7nzPO-34">
          <mxGeometry width="50" height="50" relative="1" as="geometry">
            <mxPoint x="222.5" y="365" as="sourcePoint" />
            <mxPoint x="225" y="300" as="targetPoint" />
          </mxGeometry>
        </mxCell>
        <mxCell id="eZWT99hKmcd31pd7nzPO-56" value="service exposed" style="text;strokeColor=none;align=center;fillColor=none;html=1;verticalAlign=middle;whiteSpace=wrap;rounded=0;" vertex="1" parent="1">
          <mxGeometry x="202.5" y="190" width="25" height="15" as="geometry" />
        </mxCell>
        <mxCell id="eZWT99hKmcd31pd7nzPO-63" value="alarm raised" style="text;strokeColor=none;align=center;fillColor=none;html=1;verticalAlign=middle;whiteSpace=wrap;rounded=0;" vertex="1" parent="1">
          <mxGeometry x="225" y="340" width="25" height="15" as="geometry" />
        </mxCell>
        <mxCell id="eZWT99hKmcd31pd7nzPO-64" value="service exposed" style="text;strokeColor=none;align=center;fillColor=none;html=1;verticalAlign=middle;whiteSpace=wrap;rounded=0;" vertex="1" parent="1">
          <mxGeometry x="320" y="375" width="25" height="15" as="geometry" />
        </mxCell>
        <mxCell id="eZWT99hKmcd31pd7nzPO-65" value="service exposed" style="text;strokeColor=none;align=center;fillColor=none;html=1;verticalAlign=middle;whiteSpace=wrap;rounded=0;" vertex="1" parent="1">
          <mxGeometry x="150" y="380" width="25" height="15" as="geometry" />
        </mxCell>
        <mxCell id="eZWT99hKmcd31pd7nzPO-68" value="collect metrics" style="text;strokeColor=none;align=center;fillColor=none;html=1;verticalAlign=middle;whiteSpace=wrap;rounded=0;" vertex="1" parent="1">
          <mxGeometry x="177.5" y="265" width="25" height="15" as="geometry" />
        </mxCell>
        <mxCell id="eZWT99hKmcd31pd7nzPO-70" value="" style="rounded=1;whiteSpace=wrap;html=1;fillColor=#f5f5f5;strokeColor=#666666;gradientColor=#b3b3b3;" vertex="1" parent="1">
          <mxGeometry x="500" y="70" width="310" height="470" as="geometry" />
        </mxCell>
        <mxCell id="eZWT99hKmcd31pd7nzPO-71" value="VirtualBox" style="text;strokeColor=none;align=center;fillColor=none;html=1;verticalAlign=middle;whiteSpace=wrap;rounded=0;" vertex="1" parent="1">
          <mxGeometry x="221.88" y="40" width="60" height="30" as="geometry" />
        </mxCell>
        <mxCell id="eZWT99hKmcd31pd7nzPO-72" value="Google Cloud Platform" style="text;strokeColor=none;align=center;fillColor=none;html=1;verticalAlign=middle;whiteSpace=wrap;rounded=0;" vertex="1" parent="1">
          <mxGeometry x="590" y="40" width="125" height="30" as="geometry" />
        </mxCell>
        <mxCell id="eZWT99hKmcd31pd7nzPO-73" value="" style="rounded=1;whiteSpace=wrap;html=1;fillColor=#dae8fc;strokeColor=#6c8ebf;" vertex="1" parent="1">
          <mxGeometry x="566.88" y="82.5" width="176.25" height="67.5" as="geometry" />
        </mxCell>
        <mxCell id="eZWT99hKmcd31pd7nzPO-74" value="&lt;font style=&quot;font-size: 14px;&quot;&gt;Management VM&lt;/font&gt;" style="text;strokeColor=none;align=center;fillColor=none;html=1;verticalAlign=middle;whiteSpace=wrap;rounded=0;" vertex="1" parent="1">
          <mxGeometry x="607.5" y="92.5" width="92.5" height="47.5" as="geometry" />
        </mxCell>
        <mxCell id="eZWT99hKmcd31pd7nzPO-75" value="" style="rounded=1;whiteSpace=wrap;html=1;fillColor=#dae8fc;strokeColor=#6c8ebf;" vertex="1" parent="1">
          <mxGeometry x="520" y="250" width="80" height="240" as="geometry" />
        </mxCell>
        <mxCell id="eZWT99hKmcd31pd7nzPO-76" value="" style="rounded=1;whiteSpace=wrap;html=1;fillColor=#dae8fc;strokeColor=#6c8ebf;" vertex="1" parent="1">
          <mxGeometry x="640" y="250" width="150" height="240" as="geometry" />
        </mxCell>
        <mxCell id="eZWT99hKmcd31pd7nzPO-77" value="Cloud Function" style="text;strokeColor=none;align=center;fillColor=none;html=1;verticalAlign=middle;whiteSpace=wrap;rounded=0;" vertex="1" parent="1">
          <mxGeometry x="520" y="350" width="76.25" height="40" as="geometry" />
        </mxCell>
        <mxCell id="eZWT99hKmcd31pd7nzPO-78" value="Instance Group&lt;br&gt;(my-mig)" style="text;strokeColor=none;align=center;fillColor=none;html=1;verticalAlign=middle;whiteSpace=wrap;rounded=0;" vertex="1" parent="1">
          <mxGeometry x="668.75" y="250" width="92.5" height="47.5" as="geometry" />
        </mxCell>
        <mxCell id="eZWT99hKmcd31pd7nzPO-79" value="" style="rounded=1;whiteSpace=wrap;html=1;" vertex="1" parent="1">
          <mxGeometry x="661.25" y="333.75" width="100" height="27.5" as="geometry" />
        </mxCell>
        <mxCell id="eZWT99hKmcd31pd7nzPO-80" value="" style="rounded=1;whiteSpace=wrap;html=1;" vertex="1" parent="1">
          <mxGeometry x="661.25" y="377.5" width="100" height="27.5" as="geometry" />
        </mxCell>
        <mxCell id="eZWT99hKmcd31pd7nzPO-81" value="Instance 1" style="text;strokeColor=none;align=center;fillColor=none;html=1;verticalAlign=middle;whiteSpace=wrap;rounded=0;" vertex="1" parent="1">
          <mxGeometry x="668.75" y="327.5" width="77.5" height="40" as="geometry" />
        </mxCell>
        <mxCell id="eZWT99hKmcd31pd7nzPO-82" value="" style="rounded=1;whiteSpace=wrap;html=1;" vertex="1" parent="1">
          <mxGeometry x="661.25" y="450" width="100" height="27.5" as="geometry" />
        </mxCell>
        <mxCell id="eZWT99hKmcd31pd7nzPO-83" value="Instance 2" style="text;strokeColor=none;align=center;fillColor=none;html=1;verticalAlign=middle;whiteSpace=wrap;rounded=0;" vertex="1" parent="1">
          <mxGeometry x="661.25" y="367.5" width="92.5" height="47.5" as="geometry" />
        </mxCell>
        <mxCell id="eZWT99hKmcd31pd7nzPO-84" value="Instance N" style="text;strokeColor=none;align=center;fillColor=none;html=1;verticalAlign=middle;whiteSpace=wrap;rounded=0;" vertex="1" parent="1">
          <mxGeometry x="661.25" y="440" width="92.5" height="47.5" as="geometry" />
        </mxCell>
        <mxCell id="eZWT99hKmcd31pd7nzPO-89" value="" style="endArrow=classic;html=1;rounded=0;exitX=1;exitY=0.5;exitDx=0;exitDy=0;entryX=0;entryY=0.5;entryDx=0;entryDy=0;" edge="1" parent="1" source="eZWT99hKmcd31pd7nzPO-20" target="eZWT99hKmcd31pd7nzPO-77">
          <mxGeometry width="50" height="50" relative="1" as="geometry">
            <mxPoint x="350" y="432" as="sourcePoint" />
            <mxPoint x="480" y="420" as="targetPoint" />
          </mxGeometry>
        </mxCell>
        <mxCell id="eZWT99hKmcd31pd7nzPO-90" value="Triggers" style="text;strokeColor=none;align=center;fillColor=none;html=1;verticalAlign=middle;whiteSpace=wrap;rounded=0;" vertex="1" parent="1">
          <mxGeometry x="406.25" y="400" width="76.25" height="40" as="geometry" />
        </mxCell>
        <mxCell id="eZWT99hKmcd31pd7nzPO-91" value="" style="endArrow=classic;html=1;rounded=0;exitX=1;exitY=1;exitDx=0;exitDy=0;" edge="1" parent="1">
          <mxGeometry width="50" height="50" relative="1" as="geometry">
            <mxPoint x="600" y="371" as="sourcePoint" />
            <mxPoint x="640" y="371" as="targetPoint" />
          </mxGeometry>
        </mxCell>
        <mxCell id="eZWT99hKmcd31pd7nzPO-92" value="" style="endArrow=classic;html=1;rounded=0;exitX=1;exitY=1;exitDx=0;exitDy=0;entryX=0.5;entryY=0;entryDx=0;entryDy=0;" edge="1" parent="1" target="eZWT99hKmcd31pd7nzPO-75">
          <mxGeometry width="50" height="50" relative="1" as="geometry">
            <mxPoint x="650" y="150" as="sourcePoint" />
            <mxPoint x="726" y="148" as="targetPoint" />
          </mxGeometry>
        </mxCell>
        <mxCell id="eZWT99hKmcd31pd7nzPO-93" value="" style="endArrow=classic;html=1;rounded=0;exitX=0.5;exitY=1;exitDx=0;exitDy=0;entryX=0.586;entryY=-0.053;entryDx=0;entryDy=0;entryPerimeter=0;" edge="1" parent="1" source="eZWT99hKmcd31pd7nzPO-73" target="eZWT99hKmcd31pd7nzPO-78">
          <mxGeometry width="50" height="50" relative="1" as="geometry">
            <mxPoint x="660" y="160" as="sourcePoint" />
            <mxPoint x="570" y="260" as="targetPoint" />
          </mxGeometry>
        </mxCell>
        <mxCell id="eZWT99hKmcd31pd7nzPO-94" value="Manages" style="text;strokeColor=none;align=center;fillColor=none;html=1;verticalAlign=middle;whiteSpace=wrap;rounded=0;" vertex="1" parent="1">
          <mxGeometry x="607.5" y="180" width="76.25" height="40" as="geometry" />
        </mxCell>
        <mxCell id="eZWT99hKmcd31pd7nzPO-99" value="" style="endArrow=none;dashed=1;html=1;dashPattern=1 3;strokeWidth=2;rounded=0;" edge="1" parent="1">
          <mxGeometry width="50" height="50" relative="1" as="geometry">
            <mxPoint x="710.75" y="410" as="sourcePoint" />
            <mxPoint x="711.5" y="450" as="targetPoint" />
          </mxGeometry>
        </mxCell>
      </root>
    </mxGraphModel>
  </diagram>
</mxfile>
